<svg style="display: none">
    
   <symbol id="diamond" xmlns="http://www.w3.org/2000/svg" xmlns:xlink="http://www.w3.org/1999/xlink" width="93" height="75" viewBox="0 0 93 75"><defs><path id="kvqua" d="M748.294 1117.996l-12.244 18.42-12.655-18.42zm-27.771 74.03l-13.58-51.4h27.163zm0-72.866l12.674 18.448H707.85zm-27.769-1.164h24.897l-12.653 18.42zM674 1140.626h29.809l13.836 52.37zm15.91-21.44l12.247 18.422h-28.115zm77.047 18.422h-28.065l12.224-18.387zm.043 3.018l-43.6 52.365 13.839-52.365z"/></defs><g><g transform="translate(-674 -1118)"><use fill="#fff" xlink:href="#kvqua"/></g></g></symbol> 
    
    <symbol id="gadgets" xmlns="http://www.w3.org/2000/svg" xmlns:xlink="http://www.w3.org/1999/xlink" width="99" height="76" viewBox="0 0 99 76"><defs><path id="tgz9a" d="M1631 1135.974h38.797v57.022H1631zm22.088 52.329c0-1.009-.838-1.83-1.871-1.83s-1.869.821-1.869 1.83c0 1.007.836 1.835 1.869 1.835s1.874-.828 1.87-1.835zm-16.478-4.761h27.579l.002-42.073h-27.58zm13.578-50.005h-5.478v-16.54h73.131v30.084h-5.479v-24.72h-62.174zm22.11 25.335h28.813v5.366h-28.814zm57.702-9.71v42.943h-26.057v-42.943zm-13.08 2.395c0 .338.282.619.63.619a.626.626 0 0 0 .629-.619.622.622 0 0 0-.629-.616.622.622 0 0 0-.63.616zm-3.118 2.033h7.496v-.59h-7.496zm5.005 35.186c0-.814-.675-1.471-1.503-1.471-.832 0-1.504.662-1.504 1.471 0 .813.676 1.476 1.504 1.476s1.503-.663 1.503-1.476zm7.012-33.077l-17.695.004v29.526c3.355.027 10.928.003 17.695-.035zm-24.708 10.735v7.617h-28.814v-2.94h19.314v-1.425h-19.314v-3.252z"/></defs><g><g transform="translate(-1631 -1117)"><use fill="#fff" xlink:href="#tgz9a"/></g></g></symbol>
    
    <symbol id="lamp" xmlns="http://www.w3.org/2000/svg" xmlns:xlink="http://www.w3.org/1999/xlink" width="60" height="96" viewBox="0 0 60 96"><defs><path id="dt9ba" d="M1218 1181.997a2.998 2.998 0 0 1-3 2.999h-30c-1.658 0-3-1.341-3-2.999 0-1.659 1.342-3 3-3h30c1.658 0 3 1.341 3 3zm0 9c0 1.659-1.342 2.999-3 2.999h-30c-1.658 0-3-1.34-3-3 0-1.659 1.342-3 3-3h30c1.658 0 3 1.341 3 3zm-30 6h24c0 3.316-2.684 6-6 6h-12c-3.316 0-6-2.684-6-6zm42-60c0 16.311-9.832 18.21-11.678 35.999 0 1.659-1.342 3-3 3h-30.644c-1.659 0-3-1.341-3-3h-.006c-1.84-17.79-11.672-19.688-11.672-36 0-16.57 13.43-30 30-30s30 13.43 30 30zm-17.854-9c-34.875 8.249-18 30-18 30 0-12.001 8.813-14.814 9-14.438-6.187 6-9 26.437-9 26.437h6v-12c17.063.938 12-27.938 12-30z"/></defs><g><g transform="translate(-1170 -1107)"><use fill="#18cfab" xlink:href="#dt9ba"/></g></g></symbol>
    
    <symbol id="touch" xmlns="http://www.w3.org/2000/svg" xmlns:xlink="http://www.w3.org/1999/xlink" width="58" height="97" viewBox="0 0 58 97"><defs><path id="rrm0a" d="M227.418 1196.866h35.966v4.965c0 1.19-.964 2.165-2.143 2.165h-31.68c-1.178 0-2.143-.976-2.143-2.165zm-11.735-71.67c0-10.053 8.06-18.2 18.005-18.2 9.945 0 18.004 8.147 18.004 18.2 0 6.695-3.59 12.544-8.917 15.708-.76-7.4-1.607-15.665-1.607-15.708-.193-1.906-1.114-3.574-2.593-4.68-1.222-.909-2.798-1.42-4.437-1.42-2.1 0-4.094.804-5.487 2.21-1.254 1.28-1.94 2.991-1.94 4.822l-.01 15.848c-6.484-2.763-11.028-9.241-11.018-16.78zm53.296 54.729c0 2.568-.687 5.08-1.983 7.28l-3.633 6.208h-35.966c-10.01-10.25-15.09-21.179-15.861-25.87-.536-3.218 1.682-5.373 4.147-5.373 1.404 0 2.894.692 4.008 2.306.354.521.74 1.084 1.169 1.7 3.204 4.693 6.494 4.735 7.951 4.78h.032c.044 0 .097 0 .14-.013h.021c.515-.074.89-.508.89-1.028l.021-43.8c-.01-2.457 2.133-3.778 4.212-3.778 1.833 0 3.612 1.027 3.837 3.195 0 .044 2.765 27.072 2.775 27.157v.013h.01c.762-.684 2.026-1.083 3.473-1.083.536 0 1.094.054 1.661.16 1.833.37 13.836 4.28 19.784 6.241 1.993.65 3.333 2.523 3.333 4.636z"/></defs><g><g transform="translate(-211 -1107)"><use fill="#18cfab" xlink:href="#rrm0a"/></g></g></symbol>
    
</svg>